<svg xmlns="http://www.w3.org/2000/svg" viewBox="0 0 64 64">
  <defs>
    <linearGradient id="g" x1="0" y1="0" x2="1" y2="1">
      <stop offset="0%" stop-color="#4285f4"/>
      <stop offset="100%" stop-color="#7b61ff"/>
    </linearGradient>
  </defs>
  <rect x="4" y="4" width="56" height="56" rx="14" fill="url(#g)"/>
  <path fill="#ffffff" d="M42.2 33.8c0 5.9-4.9 10.7-11.6 10.7-7.2 0-12.7-5.3-12.7-12.5 0-7.4 5.6-12.8 13.6-12.8 4.2 0 7.6 1.4 10.1 4l-3.7 3.6c-1.7-1.7-3.9-2.6-6.5-2.6-4.8 0-8.1 3.3-8.1 7.9 0 4.5 3.3 7.8 7.9 7.8 3.7 0 6.3-2 6.9-5.1H29.7v-4.7h12.5c0.1 1 .1 1.9 0 2.7z"/>
</svg>
